Patient4_TMGait_0pt6_01_right_12_EMG.mot
version=1
nRows=36
nColumns=33
inDegrees=no
endheader
time	1LAddLong	2LGlutMax	3LGlutMed	4LIliopsoas	5LSemiMemb	6LBicFemLong	7LRecFem	8LVastMed	9LVastLat	10LGasMed	11LTibAnt	12lTibPost	13LPeroneusLong	14LSol	15LExtDigLong	16LFlexDigLong	17RAddLong	18RGlutMax	19RGlutMed	20RIliopsoas	21RSemiMemb	22RBicFemLong	23RRecFem	24RVastMed	25RVastLat	26RGasMed	27RTibAnt	28RTibPost	29RPeroneusLong	30RSol	31RExtDigLong	32RFlexDigLong
15.245	0.001831	-0.12497	0.12894	-0.009613	0.016785	-0.005035	0.12695	0.018463	0.044098	-0.018768	0.048981	0.011749	-0.021973	-0.070648	-0.00351	0.001984	0.00412	-0.043945	-0.026093	0.027008	0.007172	-0.014343	-0.00061	-0.048828	0.0177	-0.005493	0.48675	-0.007629	-0.041809	-0.063019	-0.001373	-0.006866
15.246	0.000153	-0.15427	0.15182	-0.012207	0.014496	0.011902	0.12878	0.011444	0.024414	-0.026398	0.2681	0.024109	0.002136	0.25848	0.050659	0.005188	0.014191	-0.024261	0.087585	0.002594	0.048828	0.034332	-0.018921	-0.055542	-0.013428	0.004578	0.53513	-0.005035	0.007477	-0.054016	0.001526	-0.010834
15.247	-0.001678	-0.11612	0.1152	-0.019226	0.013275	-0.002747	0.072937	-0.001373	0.040283	-0.026703	0.39993	0.012207	0.088959	0.38574	0.42374	-0.003967	-0.012054	-0.002747	0.029755	-0.028381	0.052795	0.085144	-0.041809	-0.048981	-0.016785	-0.001678	0.29343	-0.001221	0.057526	0.10727	-0.001831	-0.012665
15.248	0.003204	-0.15213	0.11261	0.011139	0.023193	-0.020142	0.078888	-0.005951	0.10117	-0.012207	0.3009	0.009003	0.007019	0.26886	-0.065765	0.007477	-0.031891	0.015717	-0.006561	-0.010376	-0.076904	0.09201	-0.049438	-0.018463	0.001068	0.005493	0.081177	-0.009613	0.017548	0.039063	0	-0.005188
15.249	0.005035	-0.12558	0.10651	0.017853	0.020447	-0.002594	0.087128	-0.01297	0.11658	0.017853	0.13229	0.031891	-0.080719	0.26672	0.2034	-0.001984	-0.016632	0.016785	0.013123	-0.017548	-0.10742	0.098572	-0.03891	-0.00946	0.001526	0.004578	0.063629	-0.008087	0.168	-0.06012	-0.001678	0.001221
15.25	-0.005035	-0.10864	0.15549	0.023346	0.016174	-0.007935	0.1265	-0.006714	0.061798	0.020294	0.02594	0.007629	0.16296	0.28259	0.16876	-0.014648	-0.013885	-0.043182	0.046234	-0.024109	-0.070496	0.055389	-0.069733	-0.061493	-0.001068	0.005188	0.10529	-0.002899	0.089874	-0.02182	0.001068	-0.001221
15.251	0.003357	-0.073853	0.15137	0.023956	0.024719	-0.005341	0.14572	0.008545	0.050964	0.035095	-0.28732	0.001984	-0.019531	0.23361	-0.28397	0.00946	-0.005646	0.007019	0.018616	-0.019531	-0.034027	0.024414	-0.039215	-0.059204	-0.014038	-0.007782	0.084534	-0.002594	-0.1857	0.049744	0.000305	-0.007477
15.252	0.00351	-0.085907	0.10208	0.014648	0.018005	-0.015411	0.1355	-0.000305	0.042114	-0.02121	-0.1741	0.012207	1.1316	0.20004	-0.45502	-0.006256	-0.009308	0.016022	0.007019	0.003815	-0.043793	-0.005493	-0.045776	-0.062256	-0.014191	-0.009766	0.12634	-0.008087	-0.28671	0.095062	0.004425	0.002441
15.253	0.006866	-0.082855	-0.031128	-0.006561	0.021057	-0.024719	0.11734	0.005035	0.037994	-0.050964	-0.20645	0.015869	0.24277	0.15976	-0.46814	0.006714	-0.014343	-0.020447	-0.06134	0.023499	-0.081482	-0.031128	-0.060577	-0.05661	-0.00824	-0.011444	0.13718	-0.007019	-0.21896	0.002594	0.001678	0.001831
15.254	0.007629	-0.064545	-0.034637	-0.020752	0.02182	0.003967	0.15762	0.00824	0.053101	-0.010376	-0.27344	0.020752	-0.50247	0.099335	-0.31052	0.007324	0.019836	0.011444	-0.050812	-0.000916	-0.17242	-0.059204	-0.072784	-0.04715	-0.013733	-0.007629	0.09613	-0.000153	-0.055542	-0.070801	0.002441	0.008087
15.255	0.005646	-0.072021	0.028992	0.008545	0.020752	-0.000153	0.15198	-0.009613	0.041504	0.032501	-0.13702	0.014191	-0.065308	-0.003204	-0.13992	0.007782	0.018921	-0.027466	-0.072327	-0.10574	-0.24109	-0.060425	-0.043182	-0.05127	-0.015564	-0.004578	0.061035	-0.001526	0.01358	-0.052185	0.000763	0.005646
15.256	0.00946	-0.028839	0.057373	0.013885	0.019531	0.019073	0.18707	-0.001221	0.031433	0.024872	0.012054	0.010223	0.27649	-0.014954	0.62164	0.01236	0.001221	0.009308	-0.012665	-0.17151	-0.23239	0.046082	-0.031891	-0.080719	0.006104	-0.00412	0.083618	-0.005188	0.024109	-0.095367	0.009003	0.005493
15.257	0.006256	-0.043793	0.065308	0.035858	0.022736	-0.018005	0.15671	0.00351	0.042725	-0.015717	0.10407	0.007019	0.34409	0.006104	1.0312	0.005951	-0.010223	0.032349	0.086975	-0.0914	0.005493	0.11185	-0.055237	-0.057678	0.010529	-0.007935	0.094299	-0.003357	-0.000916	-0.079346	0.002441	0.003967
15.258	0.009308	-0.015717	0.12024	0.019989	0.027008	-0.025177	0.17471	0.010681	0.069122	-0.002136	0.15289	0.00946	-0.029755	0.09201	-0.019836	0.00351	-0.005493	-0.044861	0.20523	0.048218	0.065765	0.068817	-0.00061	-0.035095	0.003357	-0.001678	0.10605	-0.000305	0.02121	-0.060883	0.003204	0.00351
15.259	0.003052	-0.023193	0.15854	0.001831	0.029297	-0.032654	0.22598	-0.000916	0.056152	-0.011292	0.11093	0.006714	-0.016174	0.066071	-0.40924	0.008392	-0.033264	-0.000763	0.21118	0.13092	0.013123	0.042267	-0.021362	-0.033417	-0.000458	0.001068	0.11826	-0.003052	-0.026093	-0.054016	-0.000153	0.006866
15.26	0.006866	-0.032654	0.17593	0.00824	0.025787	-0.037384	0.22369	0.007935	0.039978	-0.002594	-0.034637	0.011749	-0.015717	-0.13153	-0.83893	0.009918	-0.041809	-0.008392	0.17609	0.25314	0.1593	0.000153	-0.079498	-0.038605	0.013428	-0.006256	0.089874	-0.000153	-0.066681	-0.047913	0.003662	0.001373
15.261	-0.000305	-0.029602	0.10346	0.009308	0.03952	-0.026093	0.25696	0.009766	0.0383	0.001373	0.019226	0.006256	-0.073242	-0.215	-0.56793	-0.007172	-0.020905	-0.007477	0.26474	0.23773	0.15884	-0.020447	-0.079803	-0.032349	-0.015106	0.002289	0.075226	-0.004425	-0.12375	-0.058594	0.003052	0.000916
15.262	0.004883	-0.023346	0.12558	0.0177	0.020142	-0.024872	0.29694	0.008698	0.041962	-0.061646	-0.026703	0.009155	0.10422	-0.23895	0.078278	-0.001068	0.006561	-0.047455	-0.15915	0.11612	0.050964	-0.056305	-0.05249	-0.021362	-0.001068	0.006104	0.027313	0.003662	-0.074158	-0.077667	0.000916	0.003967
15.263	-0.00351	-0.022278	0.03891	0.020599	0.033569	-0.001373	0.35004	0.010681	0.029449	-0.054932	0.00885	0.007324	0.096741	-0.18249	0.18021	-0.001373	0.061646	-0.015259	-0.1886	0.045624	0.022736	-0.13641	-0.037079	-0.076141	-0.025024	0.005035	0.032349	-0.00824	0.041962	-0.1033	0.000305	-0.00824
15.264	0.004578	0.038147	0.048218	0.01236	0.024719	-0.005798	0.32044	0.012817	0.005493	0.008698	0.046844	0.005188	-0.20432	-0.011444	0.011597	-0.00412	0.10468	0.047607	-0.10117	-0.000763	-0.071106	-0.15289	-0.029602	-0.11246	-0.033722	0.001831	0.054016	-0.00412	0.010834	-0.089264	0.00061	0.001526
15.265	-0.000153	0.039825	0.099792	-0.014954	0.024109	-0.01297	0.3006	0.013733	-0.06012	0.060577	0.15274	0.002441	-0.23682	-0.038757	-0.016937	-0.004578	0.11505	0.018158	-0.14908	0.006256	-0.16373	-0.1532	-0.038605	-0.097809	-0.027313	-0.012665	0.062103	-0.000458	-0.048065	-0.11002	0.000916	-0.005493
15.266	-0.001984	0.04715	0.19211	-0.005188	0.025635	0.007782	0.27115	0.01709	-0.17975	0.097351	0.062408	0.009918	-0.33936	-0.10071	-0.012512	0.00351	0.1033	0.018768	-0.12024	0.008545	-0.1976	-0.13199	-0.095978	-0.12329	-0.011444	-0.015869	0.096741	-0.001526	-0.083923	-0.042419	0.003662	-0.010376
15.267	-0.00351	-0.017853	0.10635	0.007477	0.017853	0.007477	0.30472	-0.001373	-0.17883	0.060425	-0.16205	0.004425	-0.29098	-0.04364	0.33737	0.010071	0.058746	-0.022583	-0.075684	-0.025177	-0.21103	-0.071716	-0.052032	-0.001526	0.006104	-0.01709	0.076904	-0.005493	0.27527	-0.011749	0.003815	-0.002594
15.268	0.002594	-0.02533	0.099335	0.017395	0.027618	0.007782	0.022736	0.020905	-0.26627	-0.016022	-0.037689	0.013885	-0.04303	0.036469	0.048218	0.007324	0.02655	-0.009766	0.056915	-0.043488	-0.004883	0.12589	-0.074768	-0.007782	0.002747	-0.013428	0.10361	-0.007782	0.38895	-0.016937	0.002594	-0.009766
15.269	0.018768	-0.010071	0.098419	0.01709	0.033569	-0.012665	-0.13168	0.031891	-0.090942	-0.06485	-0.084381	0.007629	0.10986	0.13641	0.69305	-0.000305	-0.040131	-0.002899	-0.065308	0.00946	0.15732	0.093689	-0.059052	0.001221	0.014343	-0.01709	0.18646	-0.000458	0.14267	-0.038452	0.000916	0.001678
15.27	0.017242	0.000153	0.075531	0.019684	0.023804	-0.006256	-0.030823	0.009613	0.020142	0.026703	-0.17136	0.004883	0.26138	0.12116	0.61554	-0.006561	-0.063934	-0.01358	-0.20081	0.005951	0.063477	0.14877	-0.085297	0.017395	0.004272	-0.0177	0.28183	-0.002441	-0.52582	-0.086212	0.001526	0.002899
15.271	0.007935	0.041199	0.037231	-0.008545	0.02121	0.010834	0.11459	0.00412	0.069733	0.035553	-0.14481	0.005341	-0.081024	0.121	0.26413	-0.007782	-0.08316	0.016632	-0.28488	-0.022278	0.04837	0.092316	-0.052338	0.006409	0.014648	-0.01236	0.39017	0.00473	-0.44769	-0.12192	-0.000153	0.000916
15.272	0.007172	0.078125	0.053253	-0.003662	0.021973	0.007629	0.09964	0.010834	0.15839	0.017853	-0.10864	0.003052	0.16754	0.18585	-0.31448	0.00885	-0.087433	0.049133	-0.25009	0.029144	0.007477	-0.038147	-0.041351	-0.043793	0.013123	-0.007782	0.25085	-0.011902	-0.38162	-0.11643	-0.001831	0
15.273	0.002594	0.076141	0.046997	-0.011139	0.022888	-0.010223	0.11398	-0.018768	0.24475	-0.046539	-0.041046	0.012512	0.24994	0.26062	-0.31448	0.01709	-0.061493	0.028229	-0.25024	0.012054	0.024719	-0.007324	-0.025635	-0.052032	-0.010223	-0.007172	0.060577	-0.003967	-0.015869	-0.16968	0.000305	0.002136
15.274	0.009155	0.082703	0.12009	-0.000763	0.027313	0.023956	0.20783	-0.024567	0.18097	-0.076904	-0.059662	0.009766	0.22675	0.39841	-0.34286	0.00885	-0.041199	0.050507	-0.14511	-0.06958	0.011444	0.021515	-0.043182	-0.013885	0.027466	0.001221	-0.1442	-0.009613	0.26535	-0.18372	-0.001373	-0.005798
15.275	0.001221	0.06958	0.064697	0.01358	0.023804	0.011292	0.22461	0.003052	0.065613	-0.017548	-0.0177	0.006256	0.14465	0.25696	-0.48752	0.003052	-0.030518	0.035095	-0.30563	-0.063019	-0.010834	0.032349	-0.058289	0.00885	0.023804	0.001526	-0.19577	-0.007782	0.40344	-0.18188	-0.007019	-0.001526
15.276	-0.003204	0.071411	-0.006866	0.00824	0.016022	0.018158	0.20172	0.002289	0.00473	0.051117	0.12436	0.003967	-0.19699	0.098267	0.55588	-0.008698	0	0.029449	-0.29221	-0.014648	-0.018921	0.045013	-0.042725	0.043945	0.023499	-0.007935	0.12909	-0.004578	0.12665	-0.076599	0.002899	-0.005188
15.277	0.004425	0.080109	0.010071	0.016022	0.024414	0.010376	0.15884	-0.00061	0.05249	0.056152	0.055847	0.005646	-0.26199	-0.015564	0.25284	-0.013123	0.017853	0.018616	-0.070343	0.016174	-0.007477	0.000153	-0.034332	-0.001831	0.019836	-0.00473	0.19913	-0.006104	-0.20599	-0.025177	-0.000916	-0.005951
15.278	0.004883	0.063934	0.036469	0.018616	0.019531	0.002594	0.20569	0.001984	0.055237	-0.010376	-0.005493	0.008392	-0.22568	-0.047913	-0.006409	-0.001984	0.035706	-0.021515	0.039825	-0.010681	0.005646	-0.044708	-0.065765	-0.01236	0.026398	-0.00061	-0.2005	-0.00946	-0.21545	-0.052185	0.001373	-0.002136
15.279	0.005646	0.10498	0.1413	0.032043	0.019989	0.00351	0.22385	0.000458	0.037842	-0.050964	-0.047607	0.004578	0.1796	0.024109	-0.20325	0.005035	0.055847	-0.004272	0.16968	0.012512	0.027161	-0.065002	-0.12466	-0.034027	-0.001221	-0.002747	-0.47546	-0.010376	-0.12238	-0.010986	0.002747	-0.006714
15.28	0.005951	0.044098	-0.052948	0.014343	0.020294	-0.01358	0.21713	-0.005951	0.002747	-0.021667	0.065765	0.002289	-0.11414	0.076447	-0.45456	0.002136	0.042419	-0.038452	0.19241	-0.017395	-0.004272	-0.092773	-0.10147	-0.045624	0.007629	-0.00412	-0.35736	-0.010529	-0.003357	0.097809	0.00412	-0.004883
